<?xml version="1.0" ?><!DOCTYPE svg  PUBLIC '-//W3C//DTD SVG 1.1//EN'  'http://www.w3.org/Graphics/SVG/1.1/DTD/svg11.dtd'>
<svg enable-background="new 0 0 512 512" height="64px" width="64px" version="1.1" viewBox="0 0 512 512"  xml:space="preserve" 
    xmlns="http://www.w3.org/2000/svg" 
    xmlns:xlink="http://www.w3.org/1999/xlink">
    <g id="svg-spool">
        <rect fill="#282828" height="288" width="418" x="54" y="121"/>
        <rect fill="#FFFFFF" height="113" width="5" x="54" y="216"/>
        <rect fill="#FFFFFF" height="113" width="5" x="467" y="216"/>
        <rect fill="#1E1E1E" height="494" width="31" x="64" y="18"/>
        <rect fill="#1E1E1E" height="494" width="31" x="431" y="18"/>
    </g>
    <g id="svg-filament">
        <rect fill="#0071BC" height="374" width="14" x="95" y="81"/>
        <rect fill="#0049BC" height="374" width="14" x="109" y="81"/>
        <rect fill="#0071BC" height="374" width="14" x="123" y="81"/>
        <rect fill="#0049BC" height="374" width="14" x="137" y="81"/>
        <rect fill="#0071BC" height="374" width="14" x="151" y="81"/>
        <rect fill="#0049BC" height="374" width="14" x="165" y="81"/>
        <rect fill="#0071BC" height="374" width="14" x="179" y="81"/>
        <rect fill="#0049BC" height="374" width="14" x="193" y="81"/>
        <rect fill="#0071BC" height="374" width="14" x="207" y="81"/>
        <rect fill="#0049BC" height="374" width="14" x="221" y="81"/>
        <rect fill="#0071BC" height="374" width="14" x="235" y="81"/>
        <rect fill="#0049BC" height="374" width="14" x="249" y="81"/>
        <rect fill="#0071BC" height="374" width="14" x="263" y="81"/>
        <rect fill="#0049BC" height="374" width="14" x="277" y="81"/>
        <rect fill="#0071BC" height="374" width="14" x="291" y="81"/>
        <rect fill="#0049BC" height="374" width="14" x="305" y="81"/>
        <rect fill="#0071BC" height="374" width="14" x="319" y="81"/>
        <rect fill="#0049BC" height="374" width="14" x="333" y="81"/>
        <rect fill="#0071BC" height="374" width="14" x="347" y="81"/>
        <rect fill="#0049BC" height="374" width="14" x="361" y="81"/>
        <rect fill="#0071BC" height="374" width="14" x="375" y="81"/>
        <rect fill="#0049BC" height="374" width="14" x="389" y="81"/>
        <rect fill="#0071BC" height="374" width="14" x="403" y="81"/>
        <rect fill="#0049BC" height="374" width="14" x="417" y="81"/>
        <path d="M120,81C120,4.17,237.184-58,382-58" fill="none" stroke="#0071BC" stroke-miterlimit="10" stroke-width="9"/>
    </g>
</svg>